<svg width="659" height="654" viewBox="0 0 659 654" fill="none" xmlns="http://www.w3.org/2000/svg">
<path d="M157.477 192.957C173.105 188.661 190.444 196.9 197.981 212.132L232.868 283.224C239.493 296.648 236.707 312.099 226.13 321.242L193.713 349.26C221.412 398.882 264.635 439.188 316.068 463.359L341.757 429.066C350.14 417.877 365.359 414.02 379.212 419.692L452.492 449.467C468.28 455.85 477.709 472.572 474.445 488.535L461.432 553.517C458.606 567.837 446.285 577.678 431.425 577.631C246.307 576.878 85.263 426.702 71.5992 242.087C70.5156 227.267 79.614 214.284 93.6291 210.399L157.545 192.884L157.477 192.957ZM310.701 125.272C366.861 116.66 426.152 132.844 470.911 174.582C515.67 216.321 535.95 274.338 531.345 330.89C530.249 344.088 518.635 353.904 505.436 352.808C492.238 351.713 482.422 340.098 483.518 326.9C486.989 284.468 471.671 240.923 438.175 209.687C404.679 178.452 360.172 166.209 318.086 172.632C304.996 174.645 292.725 165.664 290.711 152.574C288.697 139.484 297.679 127.213 310.769 125.199L310.701 125.272ZM318.024 221.525C348.204 214.527 381.158 222.15 405.439 244.792C429.72 267.435 439.623 299.777 434.743 330.23C432.653 343.322 420.371 352.241 407.279 350.151C394.187 348.061 385.268 335.779 387.358 322.687C389.793 307.319 384.844 291.219 372.703 279.897C360.563 268.576 344.156 264.762 328.996 268.264C316.082 271.262 303.207 263.221 300.209 250.307C297.211 237.393 305.251 224.518 318.165 221.52L318.024 221.525Z" fill="#2D4DCB"/>
</svg>
