<svg width="461" height="455" viewBox="0 0 461 455" fill="none" xmlns="http://www.w3.org/2000/svg">
<path d="M86.4767 69.957C102.105 65.6613 119.444 73.9 126.981 89.1319L161.868 160.224C168.493 173.648 165.707 189.099 155.13 198.242L122.713 226.26C150.412 275.882 193.635 316.188 245.068 340.359L270.757 306.066C279.14 294.877 294.359 291.02 308.212 296.692L381.492 326.467C397.28 332.85 406.709 349.572 403.445 365.535L390.432 430.517C387.606 444.837 375.285 454.678 360.425 454.631C175.307 453.878 14.263 303.702 0.599211 119.087C-0.484362 104.267 8.61403 91.2843 22.6291 87.3987L86.5449 69.8839L86.4767 69.957ZM239.701 2.27224C295.861 -6.3398 355.152 9.8442 399.911 51.5825C444.67 93.3208 464.95 151.338 460.345 207.89C459.249 221.088 447.635 230.904 434.436 229.808C421.238 228.713 411.422 217.098 412.518 203.9C415.989 161.468 400.671 117.923 367.175 86.6875C333.679 55.4519 289.172 43.2092 247.086 49.6316C233.996 51.6453 221.725 42.6636 219.711 29.5737C217.697 16.4838 226.679 4.21279 239.769 2.1991L239.701 2.27224ZM247.024 98.5246C277.204 91.5274 310.158 99.1501 334.439 121.792C358.72 144.435 368.623 176.777 363.743 207.23C361.653 220.322 349.371 229.241 336.279 227.151C323.187 225.061 314.268 212.779 316.358 199.687C318.793 184.319 313.844 168.219 301.703 156.897C289.563 145.576 273.156 141.762 257.996 145.264C245.082 148.262 232.207 140.221 229.209 127.307C226.211 114.393 234.251 101.518 247.165 98.5197L247.024 98.5246Z" fill="#2D4DCB"/>
</svg>
