<svg width="574" height="475" viewBox="0 0 574 475" fill="none" xmlns="http://www.w3.org/2000/svg">
<path d="M224.566 111.534C224.566 111.362 224.566 111.191 224.566 111.069C224.566 102.944 223.639 95.1355 222.006 87.4995C211.085 37.4718 166.078 0 112.302 0C58.0806 0 12.8134 37.9859 2.30074 88.5763C0.865535 95.5764 0.0744943 102.87 0.0489765 110.31C0.0489765 110.555 0 110.824 0 111.069C0 167.362 42.3851 213.793 97.2622 221.062C102.197 221.698 107.181 222.162 112.302 222.162C116.804 222.162 121.157 221.869 125.498 221.331C181.105 214.844 224.307 168.243 224.566 111.534Z" fill="#2C4CCA"/>
<path d="M573.566 363.534C573.566 363.362 573.566 363.191 573.566 363.069C573.566 354.944 572.639 347.136 571.006 339.499C560.085 289.472 515.078 252 461.302 252C407.081 252 361.813 289.986 351.301 340.576C349.866 347.576 349.074 354.87 349.049 362.31C349.049 362.555 349 362.824 349 363.069C349 419.362 391.385 465.793 446.262 473.062C451.197 473.698 456.181 474.162 461.302 474.162C465.804 474.162 470.157 473.869 474.498 473.331C530.105 466.844 573.307 420.243 573.566 363.534Z" fill="#2C4CCA"/>
<path d="M276 111C276 93.8792 289.879 80 307 80H543C560.121 80 574 93.8792 574 111V111C574 128.121 560.121 142 543 142H307C289.879 142 276 128.121 276 111V111Z" fill="#2C4CCA"/>
<path d="M0 394C0 376.879 13.8792 363 31 363H267C284.121 363 298 376.879 298 394V394C298 411.121 284.121 425 267 425H31C13.8792 425 0 411.121 0 394V394Z" fill="#2C4CCA"/>
</svg>
