<svg width="1010" height="659" viewBox="0 0 1010 659" fill="none" xmlns="http://www.w3.org/2000/svg">
<g clip-path="url(#clip0_3_31)">
<path d="M667.816 163.443C667.816 163.192 667.816 162.941 667.816 162.762C667.816 150.855 666.471 139.413 664.104 128.223C648.269 54.9117 583.01 0 505.036 0C426.417 0 360.781 55.6651 345.538 129.801C343.457 140.059 342.31 150.747 342.273 161.65C342.273 162.009 342.202 162.403 342.202 162.762C342.202 245.255 403.659 313.295 483.229 323.947C490.384 324.879 497.611 325.56 505.036 325.56C511.564 325.56 517.876 325.13 524.17 324.341C604.799 314.836 667.44 246.546 667.816 163.443Z" fill="#2C4CCA"/>
<path d="M879.303 386.283L813.935 473.33L748.568 386.283C740.912 388.972 733.613 392.308 726.367 395.93C778.769 448.474 811.299 521.212 811.299 601.839V658.437H1010V573.935C1010 487.174 955.375 413.648 879.303 386.283Z" fill="#2C4CCA"/>
<path d="M721.257 165.058C717.348 169.648 713.797 174.455 710.623 179.583C698.75 198.414 691.756 220.615 691.756 244.466C691.756 251.711 692.475 258.741 693.693 265.556C697.943 289.801 709.224 311.464 725.471 328.501C733.918 337.468 743.691 345.107 754.523 351.205C772.115 360.996 792.326 366.591 813.935 366.591C881.347 366.591 936.079 311.931 936.079 244.466C936.079 188.693 898.617 141.673 847.543 127.075C843.203 125.892 838.756 124.923 834.29 124.134C830.668 123.56 827.045 123.13 823.369 122.843C820.248 122.627 817.146 122.305 813.935 122.305C776.796 122.305 743.655 138.947 721.257 165.058Z" fill="#2C4CCA"/>
<path d="M130.662 386.283L196.064 473.33L261.431 386.283C269.088 388.972 276.387 392.308 283.632 395.93C231.177 448.474 198.682 521.212 198.682 601.839V658.437H0V573.935C0 487.174 54.6245 413.648 130.662 386.283Z" fill="#2C4CCA"/>
<path d="M288.725 165.058C292.634 169.648 296.221 174.455 299.413 179.583C311.249 198.414 318.207 220.615 318.207 244.466C318.207 251.711 317.49 258.741 316.271 265.556C312.056 289.801 300.776 311.464 284.529 328.501C276.064 337.468 266.309 345.107 255.477 351.205C237.884 360.996 217.673 366.591 196.064 366.591C128.653 366.591 73.9204 311.931 73.9204 244.466C73.9204 188.693 111.401 141.673 162.475 127.075C166.779 125.892 171.209 124.923 175.781 124.134C179.26 123.56 182.955 123.13 186.631 122.843C189.752 122.627 192.854 122.305 196.064 122.305C233.168 122.305 266.344 138.947 288.725 165.058Z" fill="#2C4CCA"/>
<path d="M673.213 399.086C655.981 384.31 636.773 371.864 616.168 361.929C608.313 358.126 600.369 354.683 592.084 351.671L571.066 379.791L524.17 442.234L504.946 467.806L483.229 438.863L439.58 380.615L417.916 351.671C409.272 354.863 400.826 358.557 392.594 362.539C371.989 372.545 352.89 385.062 335.638 400.019C326.134 408.232 317.203 417.235 308.972 426.775C268.424 473.402 243.659 534.627 243.659 601.839V658.437H766.341V601.839C766.341 534.087 741.217 472.505 700.041 425.556C691.756 416.123 682.79 407.3 673.213 399.086Z" fill="#2C4CCA"/>
</g>
<defs>
<clipPath id="clip0_3_31">
<rect width="1010" height="659" fill="white"/>
</clipPath>
</defs>
</svg>
